<?xml version="1.0" encoding="utf-8"?>
<!-- Generator: Adobe Illustrator 24.1.2, SVG Export Plug-In . SVG Version: 6.00 Build 0)  -->
<svg version="1.1" id="Layer_1" xmlns="http://www.w3.org/2000/svg" xmlns:xlink="http://www.w3.org/1999/xlink" x="0px" y="0px"
	 width="24px" height="24px" viewBox="0 0 24 24" style="enable-background:new 0 0 24 24;" xml:space="preserve">
<style type="text/css">
	.st0{fill:#B2B256;}
</style>
<path class="st0" d="M20.5,4.1c-0.8-0.5-2.1,0.3-2.9,1.6l-1.4,2.5c-0.5,1-0.4,2.2,0.2,3.2l0,0.1c0.7,0.9,1.5,1.8,1.8,2.1
	c0.6,0.7,0.6,1.7-0.1,2.3c-0.2,0.2-0.4,0.3-0.7,0.4c-0.9,0.2-1.7-0.3-2-1.1c-0.1-0.2-0.1-0.4,0-0.6c0-0.4-0.1-0.9-0.6-1.5
	c-0.5-0.6-1.5,0.5-1.9,1.6l0,0.1c-0.3,1.1-0.5,2-0.5,2.1c0,0.1,0.1,0.1,0.1,0.2c0.5,0.9,0.1,2-0.7,2.4c-0.9,0.5-2,0.1-2.4-0.7
	c-0.5-0.9-0.1-2,0.7-2.4c0,0,0,0,0,0l0.1-0.1c0.1,0,0.3-0.5,0.4-1l0.3-1c0,0,0-0.1,0-0.2l0.9-3.2l-1,2c-0.1-0.4-0.3-0.4-0.7-0.1
	c-0.2,0.2-0.7,0.5-0.9,0.7c-0.4,0.3-0.7,0.8-0.9,1.1c-0.1,0.2-0.2,0.4-0.4,0.5c-0.7,0.6-1.7,0.5-2.2-0.2C5.5,14,5.6,13,6.3,12.5
	c0.2-0.2,0.4-0.3,0.7-0.3c0.4-0.1,1.8-0.9,2.6-1.5c0.2-0.1,0.3-0.2,0.4-0.3l2.2-1.7l-1.9,1c0,0-0.2,0-0.4,0
	c-0.7,0.1-1.4,0.2-1.6,0.4c-0.1,0.1-0.2,0.2-0.3,0.3c-0.6,0.5-1.5,0.3-2-0.3C5.5,9.4,5.7,8.5,6.3,8c0.3-0.2,0.6-0.3,0.9-0.3
	c0.5,0,1.9,0.3,3,0.1l0.3,0c1.1-0.2,2.5-1.2,3-2.2l1.2-2.1c0.7-1.1,0.6-2.4-0.1-2.8L13.2,0c-0.7-0.4-1.7-0.4-2.4,0L2,5
	C1.3,5.3,0.8,6.2,0.8,7v9.7c0,0.7,0.5,1.7,1.2,2l8.9,5c0.7,0.4,1.7,0.4,2.4,0l8.8-5c0.7-0.4,1.2-1.3,1.2-2V7c0-0.7-0.5-1.7-1.2-2
	L20.5,4.1"/>
</svg>
